<mxfile host="app.diagrams.net" agent="Mozilla/5.0 (Windows NT 10.0; Win64; x64) AppleWebKit/537.36 (KHTML, like Gecko) Chrome/132.0.0.0 Safari/537.36" version="26.0.10">
  <diagram name="Страница — 1" id="hi3maOYxdtd5-xxtNOdB">
    <mxGraphModel dx="552" dy="565" grid="1" gridSize="10" guides="1" tooltips="1" connect="1" arrows="1" fold="1" page="1" pageScale="1" pageWidth="827" pageHeight="1169" math="0" shadow="0">
      <root>
        <mxCell id="0" />
        <mxCell id="1" parent="0" />
        <mxCell id="Io2_79ap3ZeYCi0wvSEB-62" style="edgeStyle=orthogonalEdgeStyle;rounded=0;orthogonalLoop=1;jettySize=auto;html=1;fontSize=14;" edge="1" parent="1" source="Io2_79ap3ZeYCi0wvSEB-61" target="Io2_79ap3ZeYCi0wvSEB-63">
          <mxGeometry relative="1" as="geometry">
            <mxPoint x="300" y="130" as="targetPoint" />
          </mxGeometry>
        </mxCell>
        <mxCell id="Io2_79ap3ZeYCi0wvSEB-61" value="Начало&lt;div&gt;KeyDownHandler&lt;/div&gt;" style="ellipse;whiteSpace=wrap;html=1;fontSize=14;" vertex="1" parent="1">
          <mxGeometry x="240" y="10" width="120" height="80" as="geometry" />
        </mxCell>
        <mxCell id="Io2_79ap3ZeYCi0wvSEB-64" style="edgeStyle=orthogonalEdgeStyle;rounded=0;orthogonalLoop=1;jettySize=auto;html=1;fontSize=14;" edge="1" parent="1" source="Io2_79ap3ZeYCi0wvSEB-63" target="Io2_79ap3ZeYCi0wvSEB-65">
          <mxGeometry relative="1" as="geometry">
            <mxPoint x="300" y="260" as="targetPoint" />
          </mxGeometry>
        </mxCell>
        <mxCell id="Io2_79ap3ZeYCi0wvSEB-66" value="True" style="edgeLabel;html=1;align=center;verticalAlign=middle;resizable=0;points=[];" vertex="1" connectable="0" parent="Io2_79ap3ZeYCi0wvSEB-64">
          <mxGeometry x="-0.05" y="3" relative="1" as="geometry">
            <mxPoint as="offset" />
          </mxGeometry>
        </mxCell>
        <mxCell id="Io2_79ap3ZeYCi0wvSEB-77" style="edgeStyle=orthogonalEdgeStyle;rounded=0;orthogonalLoop=1;jettySize=auto;html=1;" edge="1" parent="1" source="Io2_79ap3ZeYCi0wvSEB-63">
          <mxGeometry relative="1" as="geometry">
            <mxPoint x="300" y="340" as="targetPoint" />
            <Array as="points">
              <mxPoint x="391" y="170" />
            </Array>
          </mxGeometry>
        </mxCell>
        <mxCell id="Io2_79ap3ZeYCi0wvSEB-79" value="False" style="edgeLabel;html=1;align=center;verticalAlign=middle;resizable=0;points=[];" vertex="1" connectable="0" parent="Io2_79ap3ZeYCi0wvSEB-77">
          <mxGeometry x="-0.8742" y="2" relative="1" as="geometry">
            <mxPoint as="offset" />
          </mxGeometry>
        </mxCell>
        <mxCell id="Io2_79ap3ZeYCi0wvSEB-63" value="VK_Right" style="rhombus;whiteSpace=wrap;html=1;fontSize=14;" vertex="1" parent="1">
          <mxGeometry x="250" y="130" width="100" height="80" as="geometry" />
        </mxCell>
        <mxCell id="Io2_79ap3ZeYCi0wvSEB-67" style="edgeStyle=orthogonalEdgeStyle;rounded=0;orthogonalLoop=1;jettySize=auto;html=1;" edge="1" parent="1" source="Io2_79ap3ZeYCi0wvSEB-65">
          <mxGeometry relative="1" as="geometry">
            <mxPoint x="300" y="360" as="targetPoint" />
          </mxGeometry>
        </mxCell>
        <mxCell id="Io2_79ap3ZeYCi0wvSEB-65" value="OffsetX := OffsetX + 20" style="rounded=0;whiteSpace=wrap;html=1;fontSize=14;" vertex="1" parent="1">
          <mxGeometry x="240" y="250" width="120" height="50" as="geometry" />
        </mxCell>
        <mxCell id="Io2_79ap3ZeYCi0wvSEB-69" style="edgeStyle=orthogonalEdgeStyle;rounded=0;orthogonalLoop=1;jettySize=auto;html=1;" edge="1" parent="1" source="Io2_79ap3ZeYCi0wvSEB-68">
          <mxGeometry relative="1" as="geometry">
            <mxPoint x="300" y="500" as="targetPoint" />
          </mxGeometry>
        </mxCell>
        <mxCell id="Io2_79ap3ZeYCi0wvSEB-73" value="True" style="edgeStyle=orthogonalEdgeStyle;rounded=0;orthogonalLoop=1;jettySize=auto;html=1;" edge="1" parent="1" source="Io2_79ap3ZeYCi0wvSEB-68" target="Io2_79ap3ZeYCi0wvSEB-70">
          <mxGeometry relative="1" as="geometry" />
        </mxCell>
        <mxCell id="Io2_79ap3ZeYCi0wvSEB-78" style="edgeStyle=orthogonalEdgeStyle;rounded=0;orthogonalLoop=1;jettySize=auto;html=1;" edge="1" parent="1" source="Io2_79ap3ZeYCi0wvSEB-68">
          <mxGeometry relative="1" as="geometry">
            <mxPoint x="300" y="570" as="targetPoint" />
            <Array as="points">
              <mxPoint x="411" y="400" />
            </Array>
          </mxGeometry>
        </mxCell>
        <mxCell id="Io2_79ap3ZeYCi0wvSEB-81" value="False" style="edgeLabel;html=1;align=center;verticalAlign=middle;resizable=0;points=[];" vertex="1" connectable="0" parent="Io2_79ap3ZeYCi0wvSEB-78">
          <mxGeometry x="-0.848" y="-3" relative="1" as="geometry">
            <mxPoint as="offset" />
          </mxGeometry>
        </mxCell>
        <mxCell id="Io2_79ap3ZeYCi0wvSEB-68" value="VK_Left" style="rhombus;whiteSpace=wrap;html=1;fontSize=14;" vertex="1" parent="1">
          <mxGeometry x="250" y="360" width="100" height="80" as="geometry" />
        </mxCell>
        <mxCell id="Io2_79ap3ZeYCi0wvSEB-72" style="edgeStyle=orthogonalEdgeStyle;rounded=0;orthogonalLoop=1;jettySize=auto;html=1;entryX=0.5;entryY=0;entryDx=0;entryDy=0;" edge="1" parent="1" source="Io2_79ap3ZeYCi0wvSEB-70" target="Io2_79ap3ZeYCi0wvSEB-71">
          <mxGeometry relative="1" as="geometry" />
        </mxCell>
        <mxCell id="Io2_79ap3ZeYCi0wvSEB-70" value="OffsetX := OffsetX - 20" style="rounded=0;whiteSpace=wrap;html=1;fontSize=14;" vertex="1" parent="1">
          <mxGeometry x="240" y="500" width="120" height="50" as="geometry" />
        </mxCell>
        <mxCell id="Io2_79ap3ZeYCi0wvSEB-74" style="edgeStyle=orthogonalEdgeStyle;rounded=0;orthogonalLoop=1;jettySize=auto;html=1;" edge="1" parent="1" source="Io2_79ap3ZeYCi0wvSEB-71" target="Io2_79ap3ZeYCi0wvSEB-75">
          <mxGeometry relative="1" as="geometry">
            <mxPoint x="300" y="730" as="targetPoint" />
          </mxGeometry>
        </mxCell>
        <mxCell id="Io2_79ap3ZeYCi0wvSEB-76" value="True" style="edgeLabel;html=1;align=center;verticalAlign=middle;resizable=0;points=[];" vertex="1" connectable="0" parent="Io2_79ap3ZeYCi0wvSEB-74">
          <mxGeometry x="-0.76" relative="1" as="geometry">
            <mxPoint as="offset" />
          </mxGeometry>
        </mxCell>
        <mxCell id="Io2_79ap3ZeYCi0wvSEB-84" style="edgeStyle=orthogonalEdgeStyle;rounded=0;orthogonalLoop=1;jettySize=auto;html=1;" edge="1" parent="1" source="Io2_79ap3ZeYCi0wvSEB-71">
          <mxGeometry relative="1" as="geometry">
            <mxPoint x="300" y="810" as="targetPoint" />
            <Array as="points">
              <mxPoint x="411" y="630" />
            </Array>
          </mxGeometry>
        </mxCell>
        <mxCell id="Io2_79ap3ZeYCi0wvSEB-85" value="False" style="edgeLabel;html=1;align=center;verticalAlign=middle;resizable=0;points=[];" vertex="1" connectable="0" parent="Io2_79ap3ZeYCi0wvSEB-84">
          <mxGeometry x="-0.8864" y="1" relative="1" as="geometry">
            <mxPoint as="offset" />
          </mxGeometry>
        </mxCell>
        <mxCell id="Io2_79ap3ZeYCi0wvSEB-71" value="VK_Up" style="rhombus;whiteSpace=wrap;html=1;fontSize=14;" vertex="1" parent="1">
          <mxGeometry x="250" y="590" width="100" height="80" as="geometry" />
        </mxCell>
        <mxCell id="Io2_79ap3ZeYCi0wvSEB-83" style="edgeStyle=orthogonalEdgeStyle;rounded=0;orthogonalLoop=1;jettySize=auto;html=1;entryX=0.5;entryY=0;entryDx=0;entryDy=0;" edge="1" parent="1" source="Io2_79ap3ZeYCi0wvSEB-75" target="Io2_79ap3ZeYCi0wvSEB-82">
          <mxGeometry relative="1" as="geometry" />
        </mxCell>
        <mxCell id="Io2_79ap3ZeYCi0wvSEB-75" value="&lt;font style=&quot;font-size: 14px;&quot;&gt;OffsetY := OffsetY - 20&lt;/font&gt;" style="rounded=0;whiteSpace=wrap;html=1;" vertex="1" parent="1">
          <mxGeometry x="240" y="720" width="120" height="60" as="geometry" />
        </mxCell>
        <mxCell id="Io2_79ap3ZeYCi0wvSEB-86" style="edgeStyle=orthogonalEdgeStyle;rounded=0;orthogonalLoop=1;jettySize=auto;html=1;" edge="1" parent="1" source="Io2_79ap3ZeYCi0wvSEB-82">
          <mxGeometry relative="1" as="geometry">
            <mxPoint x="300" y="960" as="targetPoint" />
          </mxGeometry>
        </mxCell>
        <mxCell id="Io2_79ap3ZeYCi0wvSEB-88" value="True" style="edgeLabel;html=1;align=center;verticalAlign=middle;resizable=0;points=[];" vertex="1" connectable="0" parent="Io2_79ap3ZeYCi0wvSEB-86">
          <mxGeometry x="-0.5248" relative="1" as="geometry">
            <mxPoint as="offset" />
          </mxGeometry>
        </mxCell>
        <mxCell id="Io2_79ap3ZeYCi0wvSEB-91" style="edgeStyle=orthogonalEdgeStyle;rounded=0;orthogonalLoop=1;jettySize=auto;html=1;" edge="1" parent="1" source="Io2_79ap3ZeYCi0wvSEB-82">
          <mxGeometry relative="1" as="geometry">
            <mxPoint x="300" y="1050" as="targetPoint" />
            <Array as="points">
              <mxPoint x="401" y="870" />
            </Array>
          </mxGeometry>
        </mxCell>
        <mxCell id="Io2_79ap3ZeYCi0wvSEB-96" value="False" style="edgeLabel;html=1;align=center;verticalAlign=middle;resizable=0;points=[];" vertex="1" connectable="0" parent="Io2_79ap3ZeYCi0wvSEB-91">
          <mxGeometry x="-0.8675" y="1" relative="1" as="geometry">
            <mxPoint as="offset" />
          </mxGeometry>
        </mxCell>
        <mxCell id="Io2_79ap3ZeYCi0wvSEB-82" value="VK_Down" style="rhombus;whiteSpace=wrap;html=1;fontSize=14;" vertex="1" parent="1">
          <mxGeometry x="250" y="830" width="100" height="80" as="geometry" />
        </mxCell>
        <mxCell id="Io2_79ap3ZeYCi0wvSEB-89" style="edgeStyle=orthogonalEdgeStyle;rounded=0;orthogonalLoop=1;jettySize=auto;html=1;" edge="1" parent="1" source="Io2_79ap3ZeYCi0wvSEB-87">
          <mxGeometry relative="1" as="geometry">
            <mxPoint x="300" y="1070" as="targetPoint" />
          </mxGeometry>
        </mxCell>
        <mxCell id="Io2_79ap3ZeYCi0wvSEB-87" value="&lt;font style=&quot;font-size: 14px;&quot;&gt;OffsetY := OffsetY + 20&lt;/font&gt;" style="rounded=0;whiteSpace=wrap;html=1;" vertex="1" parent="1">
          <mxGeometry x="240" y="960" width="120" height="60" as="geometry" />
        </mxCell>
        <mxCell id="Io2_79ap3ZeYCi0wvSEB-92" style="edgeStyle=orthogonalEdgeStyle;rounded=0;orthogonalLoop=1;jettySize=auto;html=1;" edge="1" parent="1" source="Io2_79ap3ZeYCi0wvSEB-90">
          <mxGeometry relative="1" as="geometry">
            <mxPoint x="300" y="1200" as="targetPoint" />
          </mxGeometry>
        </mxCell>
        <mxCell id="Io2_79ap3ZeYCi0wvSEB-95" value="True" style="edgeLabel;html=1;align=center;verticalAlign=middle;resizable=0;points=[];" vertex="1" connectable="0" parent="Io2_79ap3ZeYCi0wvSEB-92">
          <mxGeometry x="-0.1684" relative="1" as="geometry">
            <mxPoint as="offset" />
          </mxGeometry>
        </mxCell>
        <mxCell id="Io2_79ap3ZeYCi0wvSEB-99" style="edgeStyle=orthogonalEdgeStyle;rounded=0;orthogonalLoop=1;jettySize=auto;html=1;" edge="1" parent="1" source="Io2_79ap3ZeYCi0wvSEB-90">
          <mxGeometry relative="1" as="geometry">
            <mxPoint x="300" y="1290" as="targetPoint" />
            <Array as="points">
              <mxPoint x="381" y="1110" />
            </Array>
          </mxGeometry>
        </mxCell>
        <mxCell id="Io2_79ap3ZeYCi0wvSEB-90" value="VK_W" style="rhombus;whiteSpace=wrap;html=1;fontSize=14;" vertex="1" parent="1">
          <mxGeometry x="250" y="1070" width="100" height="80" as="geometry" />
        </mxCell>
        <mxCell id="Io2_79ap3ZeYCi0wvSEB-97" style="edgeStyle=orthogonalEdgeStyle;rounded=0;orthogonalLoop=1;jettySize=auto;html=1;" edge="1" parent="1" source="Io2_79ap3ZeYCi0wvSEB-93">
          <mxGeometry relative="1" as="geometry">
            <mxPoint x="300" y="1310" as="targetPoint" />
          </mxGeometry>
        </mxCell>
        <mxCell id="Io2_79ap3ZeYCi0wvSEB-93" value="&lt;font style=&quot;font-size: 14px;&quot;&gt;Scale := Scale * 1.1&lt;/font&gt;" style="rounded=0;whiteSpace=wrap;html=1;" vertex="1" parent="1">
          <mxGeometry x="240" y="1200" width="120" height="60" as="geometry" />
        </mxCell>
        <mxCell id="Io2_79ap3ZeYCi0wvSEB-100" style="edgeStyle=orthogonalEdgeStyle;rounded=0;orthogonalLoop=1;jettySize=auto;html=1;" edge="1" parent="1" source="Io2_79ap3ZeYCi0wvSEB-98">
          <mxGeometry relative="1" as="geometry">
            <mxPoint x="300" y="1430" as="targetPoint" />
          </mxGeometry>
        </mxCell>
        <mxCell id="Io2_79ap3ZeYCi0wvSEB-102" value="True" style="edgeLabel;html=1;align=center;verticalAlign=middle;resizable=0;points=[];" vertex="1" connectable="0" parent="Io2_79ap3ZeYCi0wvSEB-100">
          <mxGeometry x="0.0122" y="1" relative="1" as="geometry">
            <mxPoint y="-1" as="offset" />
          </mxGeometry>
        </mxCell>
        <mxCell id="Io2_79ap3ZeYCi0wvSEB-108" style="edgeStyle=orthogonalEdgeStyle;rounded=0;orthogonalLoop=1;jettySize=auto;html=1;" edge="1" parent="1" source="Io2_79ap3ZeYCi0wvSEB-98">
          <mxGeometry relative="1" as="geometry">
            <mxPoint x="300" y="1520" as="targetPoint" />
            <Array as="points">
              <mxPoint x="391" y="1350" />
            </Array>
          </mxGeometry>
        </mxCell>
        <mxCell id="Io2_79ap3ZeYCi0wvSEB-98" value="VK_S" style="rhombus;whiteSpace=wrap;html=1;fontSize=14;" vertex="1" parent="1">
          <mxGeometry x="250" y="1310" width="100" height="80" as="geometry" />
        </mxCell>
        <mxCell id="Io2_79ap3ZeYCi0wvSEB-107" style="edgeStyle=orthogonalEdgeStyle;rounded=0;orthogonalLoop=1;jettySize=auto;html=1;" edge="1" parent="1" source="Io2_79ap3ZeYCi0wvSEB-101" target="Io2_79ap3ZeYCi0wvSEB-105">
          <mxGeometry relative="1" as="geometry" />
        </mxCell>
        <mxCell id="Io2_79ap3ZeYCi0wvSEB-101" value="&lt;font style=&quot;font-size: 14px;&quot;&gt;Scale := Scale / 1.1&lt;/font&gt;" style="rounded=0;whiteSpace=wrap;html=1;" vertex="1" parent="1">
          <mxGeometry x="240" y="1430" width="120" height="60" as="geometry" />
        </mxCell>
        <mxCell id="Io2_79ap3ZeYCi0wvSEB-112" style="edgeStyle=orthogonalEdgeStyle;rounded=0;orthogonalLoop=1;jettySize=auto;html=1;fontSize=14;" edge="1" parent="1" source="Io2_79ap3ZeYCi0wvSEB-104" target="Io2_79ap3ZeYCi0wvSEB-113">
          <mxGeometry relative="1" as="geometry">
            <mxPoint x="300" y="1790" as="targetPoint" />
          </mxGeometry>
        </mxCell>
        <mxCell id="Io2_79ap3ZeYCi0wvSEB-118" value="True" style="edgeLabel;html=1;align=center;verticalAlign=middle;resizable=0;points=[];" vertex="1" connectable="0" parent="Io2_79ap3ZeYCi0wvSEB-112">
          <mxGeometry x="-0.5909" y="-2" relative="1" as="geometry">
            <mxPoint as="offset" />
          </mxGeometry>
        </mxCell>
        <mxCell id="Io2_79ap3ZeYCi0wvSEB-119" style="edgeStyle=orthogonalEdgeStyle;rounded=0;orthogonalLoop=1;jettySize=auto;html=1;" edge="1" parent="1" source="Io2_79ap3ZeYCi0wvSEB-104">
          <mxGeometry relative="1" as="geometry">
            <mxPoint x="300" y="1850" as="targetPoint" />
            <Array as="points">
              <mxPoint x="391" y="1714" />
            </Array>
          </mxGeometry>
        </mxCell>
        <mxCell id="Io2_79ap3ZeYCi0wvSEB-120" value="False" style="edgeLabel;html=1;align=center;verticalAlign=middle;resizable=0;points=[];" vertex="1" connectable="0" parent="Io2_79ap3ZeYCi0wvSEB-119">
          <mxGeometry x="-0.8955" y="2" relative="1" as="geometry">
            <mxPoint as="offset" />
          </mxGeometry>
        </mxCell>
        <mxCell id="Io2_79ap3ZeYCi0wvSEB-104" value="Depth&amp;nbsp;&amp;lt; 10" style="rhombus;whiteSpace=wrap;html=1;fontSize=14;" vertex="1" parent="1">
          <mxGeometry x="250" y="1674" width="100" height="80" as="geometry" />
        </mxCell>
        <mxCell id="Io2_79ap3ZeYCi0wvSEB-110" style="edgeStyle=orthogonalEdgeStyle;rounded=0;orthogonalLoop=1;jettySize=auto;html=1;entryX=0.5;entryY=0;entryDx=0;entryDy=0;fontSize=14;" edge="1" parent="1" source="Io2_79ap3ZeYCi0wvSEB-105" target="Io2_79ap3ZeYCi0wvSEB-104">
          <mxGeometry relative="1" as="geometry" />
        </mxCell>
        <mxCell id="Io2_79ap3ZeYCi0wvSEB-111" value="True" style="edgeLabel;html=1;align=center;verticalAlign=middle;resizable=0;points=[];fontSize=14;" vertex="1" connectable="0" parent="Io2_79ap3ZeYCi0wvSEB-110">
          <mxGeometry x="-0.3704" relative="1" as="geometry">
            <mxPoint as="offset" />
          </mxGeometry>
        </mxCell>
        <mxCell id="Io2_79ap3ZeYCi0wvSEB-116" style="edgeStyle=orthogonalEdgeStyle;rounded=0;orthogonalLoop=1;jettySize=auto;html=1;" edge="1" parent="1" source="Io2_79ap3ZeYCi0wvSEB-105">
          <mxGeometry relative="1" as="geometry">
            <mxPoint x="300" y="1860" as="targetPoint" />
            <Array as="points">
              <mxPoint x="421" y="1580" />
            </Array>
          </mxGeometry>
        </mxCell>
        <mxCell id="Io2_79ap3ZeYCi0wvSEB-117" value="False" style="edgeLabel;html=1;align=center;verticalAlign=middle;resizable=0;points=[];" vertex="1" connectable="0" parent="Io2_79ap3ZeYCi0wvSEB-116">
          <mxGeometry x="-0.8596" y="4" relative="1" as="geometry">
            <mxPoint as="offset" />
          </mxGeometry>
        </mxCell>
        <mxCell id="Io2_79ap3ZeYCi0wvSEB-105" value="VK_add" style="rhombus;whiteSpace=wrap;html=1;fontSize=14;" vertex="1" parent="1">
          <mxGeometry x="250" y="1540" width="100" height="80" as="geometry" />
        </mxCell>
        <mxCell id="Io2_79ap3ZeYCi0wvSEB-114" style="edgeStyle=orthogonalEdgeStyle;rounded=0;orthogonalLoop=1;jettySize=auto;html=1;" edge="1" parent="1" source="Io2_79ap3ZeYCi0wvSEB-113" target="Io2_79ap3ZeYCi0wvSEB-115">
          <mxGeometry relative="1" as="geometry">
            <mxPoint x="300" y="1890" as="targetPoint" />
          </mxGeometry>
        </mxCell>
        <mxCell id="Io2_79ap3ZeYCi0wvSEB-113" value="Depth := Depth + 1" style="rounded=0;whiteSpace=wrap;html=1;fontSize=14;" vertex="1" parent="1">
          <mxGeometry x="240" y="1790" width="120" height="40" as="geometry" />
        </mxCell>
        <mxCell id="Io2_79ap3ZeYCi0wvSEB-121" style="edgeStyle=orthogonalEdgeStyle;rounded=0;orthogonalLoop=1;jettySize=auto;html=1;" edge="1" parent="1" source="Io2_79ap3ZeYCi0wvSEB-115" target="Io2_79ap3ZeYCi0wvSEB-122">
          <mxGeometry relative="1" as="geometry">
            <mxPoint x="300" y="2030" as="targetPoint" />
          </mxGeometry>
        </mxCell>
        <mxCell id="Io2_79ap3ZeYCi0wvSEB-123" value="True" style="edgeLabel;html=1;align=center;verticalAlign=middle;resizable=0;points=[];" vertex="1" connectable="0" parent="Io2_79ap3ZeYCi0wvSEB-121">
          <mxGeometry x="-0.6" y="-3" relative="1" as="geometry">
            <mxPoint as="offset" />
          </mxGeometry>
        </mxCell>
        <mxCell id="Io2_79ap3ZeYCi0wvSEB-129" style="edgeStyle=orthogonalEdgeStyle;rounded=0;orthogonalLoop=1;jettySize=auto;html=1;" edge="1" parent="1" source="Io2_79ap3ZeYCi0wvSEB-115">
          <mxGeometry relative="1" as="geometry">
            <mxPoint x="300" y="2230" as="targetPoint" />
            <Array as="points">
              <mxPoint x="421" y="1935" />
            </Array>
          </mxGeometry>
        </mxCell>
        <mxCell id="Io2_79ap3ZeYCi0wvSEB-130" value="False" style="edgeLabel;html=1;align=center;verticalAlign=middle;resizable=0;points=[];" vertex="1" connectable="0" parent="Io2_79ap3ZeYCi0wvSEB-129">
          <mxGeometry x="-0.7901" relative="1" as="geometry">
            <mxPoint as="offset" />
          </mxGeometry>
        </mxCell>
        <mxCell id="Io2_79ap3ZeYCi0wvSEB-115" value="VK_Subtract" style="rhombus;whiteSpace=wrap;html=1;fontSize=14;" vertex="1" parent="1">
          <mxGeometry x="240" y="1890" width="120" height="90" as="geometry" />
        </mxCell>
        <mxCell id="Io2_79ap3ZeYCi0wvSEB-124" style="edgeStyle=orthogonalEdgeStyle;rounded=0;orthogonalLoop=1;jettySize=auto;html=1;" edge="1" parent="1" source="Io2_79ap3ZeYCi0wvSEB-122">
          <mxGeometry relative="1" as="geometry">
            <mxPoint x="300" y="2160" as="targetPoint" />
          </mxGeometry>
        </mxCell>
        <mxCell id="Io2_79ap3ZeYCi0wvSEB-125" value="True" style="edgeLabel;html=1;align=center;verticalAlign=middle;resizable=0;points=[];" vertex="1" connectable="0" parent="Io2_79ap3ZeYCi0wvSEB-124">
          <mxGeometry x="0.1721" y="3" relative="1" as="geometry">
            <mxPoint as="offset" />
          </mxGeometry>
        </mxCell>
        <mxCell id="Io2_79ap3ZeYCi0wvSEB-131" style="edgeStyle=orthogonalEdgeStyle;rounded=0;orthogonalLoop=1;jettySize=auto;html=1;" edge="1" parent="1" source="Io2_79ap3ZeYCi0wvSEB-122">
          <mxGeometry relative="1" as="geometry">
            <mxPoint x="300" y="2220" as="targetPoint" />
            <Array as="points">
              <mxPoint x="381" y="2060" />
            </Array>
          </mxGeometry>
        </mxCell>
        <mxCell id="Io2_79ap3ZeYCi0wvSEB-132" value="False" style="edgeLabel;html=1;align=center;verticalAlign=middle;resizable=0;points=[];" vertex="1" connectable="0" parent="Io2_79ap3ZeYCi0wvSEB-131">
          <mxGeometry x="-0.5878" y="1" relative="1" as="geometry">
            <mxPoint as="offset" />
          </mxGeometry>
        </mxCell>
        <mxCell id="Io2_79ap3ZeYCi0wvSEB-122" value="&lt;font style=&quot;font-size: 14px;&quot;&gt;Depth &amp;gt; 0&lt;/font&gt;" style="rhombus;whiteSpace=wrap;html=1;" vertex="1" parent="1">
          <mxGeometry x="240" y="2020" width="120" height="80" as="geometry" />
        </mxCell>
        <mxCell id="Io2_79ap3ZeYCi0wvSEB-127" style="edgeStyle=orthogonalEdgeStyle;rounded=0;orthogonalLoop=1;jettySize=auto;html=1;" edge="1" parent="1" source="Io2_79ap3ZeYCi0wvSEB-126" target="Io2_79ap3ZeYCi0wvSEB-128">
          <mxGeometry relative="1" as="geometry">
            <mxPoint x="300" y="2260" as="targetPoint" />
          </mxGeometry>
        </mxCell>
        <mxCell id="Io2_79ap3ZeYCi0wvSEB-126" value="&lt;font style=&quot;font-size: 14px;&quot;&gt;Depth := Depth - 1&lt;/font&gt;" style="rounded=0;whiteSpace=wrap;html=1;" vertex="1" parent="1">
          <mxGeometry x="240" y="2160" width="120" height="50" as="geometry" />
        </mxCell>
        <mxCell id="Io2_79ap3ZeYCi0wvSEB-133" style="edgeStyle=orthogonalEdgeStyle;rounded=0;orthogonalLoop=1;jettySize=auto;html=1;" edge="1" parent="1" source="Io2_79ap3ZeYCi0wvSEB-128" target="Io2_79ap3ZeYCi0wvSEB-134">
          <mxGeometry relative="1" as="geometry">
            <mxPoint x="300" y="2350" as="targetPoint" />
          </mxGeometry>
        </mxCell>
        <mxCell id="Io2_79ap3ZeYCi0wvSEB-128" value="&lt;font style=&quot;font-size: 14px;&quot;&gt;ThreeSidesDraw&lt;/font&gt;" style="shape=process;whiteSpace=wrap;html=1;backgroundOutline=1;" vertex="1" parent="1">
          <mxGeometry x="220" y="2240" width="160" height="60" as="geometry" />
        </mxCell>
        <mxCell id="Io2_79ap3ZeYCi0wvSEB-134" value="&lt;font style=&quot;font-size: 14px;&quot;&gt;Конец&lt;/font&gt;&lt;div&gt;&lt;font style=&quot;font-size: 14px;&quot;&gt;KeyDownHandler&lt;/font&gt;&lt;/div&gt;" style="ellipse;whiteSpace=wrap;html=1;" vertex="1" parent="1">
          <mxGeometry x="240" y="2338" width="120" height="80" as="geometry" />
        </mxCell>
      </root>
    </mxGraphModel>
  </diagram>
</mxfile>
